<svg xmlns="http://www.w3.org/2000/svg" viewBox="0 0 5804 872" width="5804" height="872">
<defs>
<style type="text/css">
@import url('https://fonts.googleapis.com/css2?family=Playfair+Display:wght@600;700&amp;family=Lato:wght@400;700&amp;display=swap');
</style>
<linearGradient id="grad0" x1="0" y1="0" x2="0" y2="1">
  <stop offset="0%" stop-color="#7D5A4A"/>
  <stop offset="100%" stop-color="#5D4037"/>
</linearGradient>
<linearGradient id="grad1" x1="0" y1="0" x2="0" y2="1">
  <stop offset="0%" stop-color="#43A047"/>
  <stop offset="100%" stop-color="#2E7D32"/>
</linearGradient>
<linearGradient id="grad2" x1="0" y1="0" x2="0" y2="1">
  <stop offset="0%" stop-color="#A5D6A7"/>
  <stop offset="100%" stop-color="#81C784"/>
</linearGradient>
<linearGradient id="grad3" x1="0" y1="0" x2="0" y2="1">
  <stop offset="0%" stop-color="#FFFDE7"/>
  <stop offset="100%" stop-color="#FFF9C4"/>
</linearGradient>
<linearGradient id="bgGrad" x1="0" y1="0" x2="0" y2="1">
  <stop offset="0%" stop-color="#FAF6F0"/>
  <stop offset="100%" stop-color="#F0E8DA"/>
</linearGradient>
<linearGradient id="trunkGrad" x1="0" y1="0" x2="1" y2="0">
  <stop offset="0%" stop-color="#8D6E63" stop-opacity="0.4"/>
  <stop offset="50%" stop-color="#6D4C41" stop-opacity="0.5"/>
  <stop offset="100%" stop-color="#8D6E63" stop-opacity="0.4"/>
</linearGradient>
<filter id="shadow" x="-6%" y="-6%" width="116%" height="126%">
  <feDropShadow dx="0" dy="3" stdDeviation="4" flood-opacity="0.12" flood-color="#3E2723"/>
</filter>
<filter id="rootGlow" x="-12%" y="-12%" width="128%" height="136%">
  <feDropShadow dx="0" dy="0" stdDeviation="8" flood-opacity="0.18" flood-color="#D4A96A"/>
  <feDropShadow dx="0" dy="4" stdDeviation="5" flood-opacity="0.12" flood-color="#3E2723"/>
</filter>
<symbol id="leafDeco" viewBox="0 0 20 28">
  <path d="M10,0 C16,6 18,14 16,22 C14,26 10,28 10,28 C10,28 6,26 4,22 C2,14 4,6 10,0Z" fill="#81C784" opacity="0.25"/>
  <line x1="10" y1="3" x2="10" y2="26" stroke="#66BB6A" stroke-width="0.5" opacity="0.3"/>
</symbol>
</defs>
<rect width="100%" height="100%" fill="url(#bgGrad)"/>
<rect x="12" y="12" width="5780" height="848" rx="20" fill="none" stroke="#D7CCC8" stroke-width="1.5"/>
<rect x="18" y="18" width="5768" height="836" rx="16" fill="none" stroke="#D7CCC8" stroke-width="0.5"/>
<text x="2902" y="50" text-anchor="middle" font-family="'Playfair Display', Georgia, serif" font-size="24" font-weight="700" fill="#3E2723" letter-spacing="1">Jameel Marikkar Family Tree</text>
<line x1="2822" y1="64" x2="2890" y2="64" stroke="#C9A96E" stroke-width="1" stroke-linecap="round"/>
<circle cx="2896" cy="64" r="2" fill="#C9A96E"/>
<circle cx="2902" cy="64" r="2.5" fill="#C9A96E"/>
<circle cx="2908" cy="64" r="2" fill="#C9A96E"/>
<line x1="2914" y1="64" x2="2982" y2="64" stroke="#C9A96E" stroke-width="1" stroke-linecap="round"/>
<path d="M2869,222 C2869,232 2857,242 2857,247 L2913,247 C2913,242 2901,232 2901,222 Z" fill="url(#trunkGrad)"/>
<path d="M2861,247 Q2853,259 2849,265" fill="none" stroke="#8D6E63" stroke-width="1.5" stroke-linecap="round" opacity="0.35"/>
<path d="M2873,247 Q2878,259 2880,265" fill="none" stroke="#8D6E63" stroke-width="1.5" stroke-linecap="round" opacity="0.35"/>
<path d="M2897,247 Q2892,259 2889,265" fill="none" stroke="#8D6E63" stroke-width="1.5" stroke-linecap="round" opacity="0.35"/>
<path d="M2909,247 Q2917,259 2921,265" fill="none" stroke="#8D6E63" stroke-width="1.5" stroke-linecap="round" opacity="0.35"/>
<use href="#leafDeco" x="3692" y="99" width="12" height="16" transform="rotate(-18,3698,107)"/>
<use href="#leafDeco" x="2444" y="102" width="14" height="20" transform="rotate(-23,2451,112)"/>
<use href="#leafDeco" x="177" y="230" width="14" height="20" transform="rotate(12,184,240)"/>
<use href="#leafDeco" x="4646" y="605" width="11" height="16" transform="rotate(-13,4651,613)"/>
<use href="#leafDeco" x="3100" y="812" width="14" height="20" transform="rotate(-10,3107,822)"/>
<use href="#leafDeco" x="4065" y="114" width="12" height="17" transform="rotate(-22,4071,123)"/>
<use href="#leafDeco" x="483" y="255" width="12" height="17" transform="rotate(-32,489,264)"/>
<use href="#leafDeco" x="3670" y="354" width="12" height="16" transform="rotate(-10,3676,363)"/>
<use href="#leafDeco" x="1556" y="784" width="15" height="21" transform="rotate(12,1563,795)"/>
<use href="#leafDeco" x="1006" y="628" width="13" height="18" transform="rotate(-27,1013,637)"/>
<use href="#leafDeco" x="4858" y="664" width="10" height="14" transform="rotate(-22,4863,671)"/>
<use href="#leafDeco" x="1834" y="281" width="18" height="25" transform="rotate(-23,1843,294)"/>
<use href="#leafDeco" x="5050" y="317" width="13" height="18" transform="rotate(12,5057,326)"/>
<use href="#leafDeco" x="5269" y="425" width="12" height="17" transform="rotate(-19,5275,433)"/>
<path d="M2884.7,222.0 C2884.7,282.5 715.7,271.5 715.7,332.0" fill="none" stroke="#6D4C41" stroke-width="2.8" stroke-linecap="round" opacity="0.55"/>
<path d="M715.7,412.0 C715.7,472.5 340.0,461.5 340.0,522.0" fill="none" stroke="#5D4037" stroke-width="2.2" stroke-linecap="round" opacity="0.55"/>
<path d="M340.0,602.0 C340.0,662.5 130.0,651.5 130.0,712.0" fill="none" stroke="#6D8B74" stroke-width="1.8" stroke-linecap="round" opacity="0.55"/>
<path d="M340.0,602.0 C340.0,662.5 270.0,651.5 270.0,712.0" fill="none" stroke="#6D8B74" stroke-width="1.8" stroke-linecap="round" opacity="0.55"/>
<path d="M340.0,602.0 C340.0,662.5 410.0,651.5 410.0,712.0" fill="none" stroke="#6D8B74" stroke-width="1.8" stroke-linecap="round" opacity="0.55"/>
<path d="M340.0,602.0 C340.0,662.5 550.0,651.5 550.0,712.0" fill="none" stroke="#6D8B74" stroke-width="1.8" stroke-linecap="round" opacity="0.55"/>
<path d="M715.7,412.0 C715.7,472.5 830.0,461.5 830.0,522.0" fill="none" stroke="#5D4037" stroke-width="2.2" stroke-linecap="round" opacity="0.55"/>
<path d="M830.0,602.0 C830.0,662.5 690.0,651.5 690.0,712.0" fill="none" stroke="#6D8B74" stroke-width="1.8" stroke-linecap="round" opacity="0.55"/>
<path d="M830.0,602.0 C830.0,662.5 830.0,651.5 830.0,712.0" fill="none" stroke="#6D8B74" stroke-width="1.8" stroke-linecap="round" opacity="0.55"/>
<path d="M830.0,602.0 C830.0,662.5 970.0,651.5 970.0,712.0" fill="none" stroke="#6D8B74" stroke-width="1.8" stroke-linecap="round" opacity="0.55"/>
<path d="M715.7,412.0 C715.7,472.5 1121.0,461.5 1121.0,522.0" fill="none" stroke="#5D4037" stroke-width="2.2" stroke-linecap="round" opacity="0.55"/>
<path d="M1121.0,602.0 C1121.0,662.5 1110.0,651.5 1110.0,712.0" fill="none" stroke="#6D8B74" stroke-width="1.8" stroke-linecap="round" opacity="0.55"/>
<path d="M715.7,412.0 C715.7,472.5 1286.7,461.5 1286.7,522.0" fill="none" stroke="#5D4037" stroke-width="2.2" stroke-linecap="round" opacity="0.55"/>
<path d="M2884.7,222.0 C2884.7,282.5 1938.8,271.5 1938.8,332.0" fill="none" stroke="#6D4C41" stroke-width="2.8" stroke-linecap="round" opacity="0.55"/>
<path d="M1938.8,412.0 C1938.8,472.5 1511.3,461.5 1511.3,522.0" fill="none" stroke="#5D4037" stroke-width="2.2" stroke-linecap="round" opacity="0.55"/>
<path d="M1511.3,602.0 C1511.3,662.5 1441.3,651.5 1441.3,712.0" fill="none" stroke="#6D8B74" stroke-width="1.8" stroke-linecap="round" opacity="0.55"/>
<path d="M1511.3,602.0 C1511.3,662.5 1581.3,651.5 1581.3,712.0" fill="none" stroke="#6D8B74" stroke-width="1.8" stroke-linecap="round" opacity="0.55"/>
<path d="M1938.8,412.0 C1938.8,472.5 1791.3,461.5 1791.3,522.0" fill="none" stroke="#5D4037" stroke-width="2.2" stroke-linecap="round" opacity="0.55"/>
<path d="M1791.3,602.0 C1791.3,662.5 1721.3,651.5 1721.3,712.0" fill="none" stroke="#6D8B74" stroke-width="1.8" stroke-linecap="round" opacity="0.55"/>
<path d="M1791.3,602.0 C1791.3,662.5 1861.3,651.5 1861.3,712.0" fill="none" stroke="#6D8B74" stroke-width="1.8" stroke-linecap="round" opacity="0.55"/>
<path d="M1938.8,412.0 C1938.8,472.5 2141.3,461.5 2141.3,522.0" fill="none" stroke="#5D4037" stroke-width="2.2" stroke-linecap="round" opacity="0.55"/>
<path d="M2141.3,602.0 C2141.3,662.5 2001.3,651.5 2001.3,712.0" fill="none" stroke="#6D8B74" stroke-width="1.8" stroke-linecap="round" opacity="0.55"/>
<path d="M2141.3,602.0 C2141.3,662.5 2141.3,651.5 2141.3,712.0" fill="none" stroke="#6D8B74" stroke-width="1.8" stroke-linecap="round" opacity="0.55"/>
<path d="M2141.3,602.0 C2141.3,662.5 2281.3,651.5 2281.3,712.0" fill="none" stroke="#6D8B74" stroke-width="1.8" stroke-linecap="round" opacity="0.55"/>
<path d="M1938.8,412.0 C1938.8,472.5 2428.8,461.5 2428.8,522.0" fill="none" stroke="#5D4037" stroke-width="2.2" stroke-linecap="round" opacity="0.55"/>
<path d="M2428.8,602.0 C2428.8,662.5 2421.3,651.5 2421.3,712.0" fill="none" stroke="#6D8B74" stroke-width="1.8" stroke-linecap="round" opacity="0.55"/>
<path d="M2884.7,222.0 C2884.7,282.5 2646.3,271.5 2646.3,332.0" fill="none" stroke="#6D4C41" stroke-width="2.8" stroke-linecap="round" opacity="0.55"/>
<path d="M2646.3,412.0 C2646.3,472.5 2646.3,461.5 2646.3,522.0" fill="none" stroke="#5D4037" stroke-width="2.2" stroke-linecap="round" opacity="0.55"/>
<path d="M2646.3,602.0 C2646.3,662.5 2576.3,651.5 2576.3,712.0" fill="none" stroke="#6D8B74" stroke-width="1.8" stroke-linecap="round" opacity="0.55"/>
<path d="M2646.3,602.0 C2646.3,662.5 2716.3,651.5 2716.3,712.0" fill="none" stroke="#6D8B74" stroke-width="1.8" stroke-linecap="round" opacity="0.55"/>
<path d="M2884.7,222.0 C2884.7,282.5 2941.6,271.5 2941.6,332.0" fill="none" stroke="#6D4C41" stroke-width="2.8" stroke-linecap="round" opacity="0.55"/>
<path d="M2941.6,412.0 C2941.6,472.5 2863.8,461.5 2863.8,522.0" fill="none" stroke="#5D4037" stroke-width="2.2" stroke-linecap="round" opacity="0.55"/>
<path d="M2863.8,602.0 C2863.8,662.5 2856.3,651.5 2856.3,712.0" fill="none" stroke="#6D8B74" stroke-width="1.8" stroke-linecap="round" opacity="0.55"/>
<path d="M2941.6,412.0 C2941.6,472.5 3019.1,461.5 3019.1,522.0" fill="none" stroke="#5D4037" stroke-width="2.2" stroke-linecap="round" opacity="0.55"/>
<path d="M2884.7,222.0 C2884.7,282.5 3338.4,271.5 3338.4,332.0" fill="none" stroke="#6D4C41" stroke-width="2.8" stroke-linecap="round" opacity="0.55"/>
<path d="M3338.4,412.0 C3338.4,472.5 3167.2,461.5 3167.2,522.0" fill="none" stroke="#5D4037" stroke-width="2.2" stroke-linecap="round" opacity="0.55"/>
<path d="M3338.4,412.0 C3338.4,472.5 3311.4,461.5 3311.4,522.0" fill="none" stroke="#5D4037" stroke-width="2.2" stroke-linecap="round" opacity="0.55"/>
<path d="M3338.4,412.0 C3338.4,472.5 3482.6,461.5 3482.6,522.0" fill="none" stroke="#5D4037" stroke-width="2.2" stroke-linecap="round" opacity="0.55"/>
<path d="M2884.7,222.0 C2884.7,282.5 3898.6,271.5 3898.6,332.0" fill="none" stroke="#6D4C41" stroke-width="2.8" stroke-linecap="round" opacity="0.55"/>
<path d="M3898.6,412.0 C3898.6,472.5 3657.4,461.5 3657.4,522.0" fill="none" stroke="#5D4037" stroke-width="2.2" stroke-linecap="round" opacity="0.55"/>
<path d="M3898.6,412.0 C3898.6,472.5 3816.6,461.5 3816.6,522.0" fill="none" stroke="#5D4037" stroke-width="2.2" stroke-linecap="round" opacity="0.55"/>
<path d="M3898.6,412.0 C3898.6,472.5 3980.0,461.5 3980.0,522.0" fill="none" stroke="#5D4037" stroke-width="2.2" stroke-linecap="round" opacity="0.55"/>
<path d="M3898.6,412.0 C3898.6,472.5 4139.5,461.5 4139.5,522.0" fill="none" stroke="#5D4037" stroke-width="2.2" stroke-linecap="round" opacity="0.55"/>
<path d="M2884.7,222.0 C2884.7,282.5 4558.7,271.5 4558.7,332.0" fill="none" stroke="#6D4C41" stroke-width="2.8" stroke-linecap="round" opacity="0.55"/>
<path d="M4558.7,412.0 C4558.7,472.5 4318.5,461.5 4318.5,522.0" fill="none" stroke="#5D4037" stroke-width="2.2" stroke-linecap="round" opacity="0.55"/>
<path d="M4558.7,412.0 C4558.7,472.5 4504.3,461.5 4504.3,522.0" fill="none" stroke="#5D4037" stroke-width="2.2" stroke-linecap="round" opacity="0.55"/>
<path d="M4558.7,412.0 C4558.7,472.5 4666.7,461.5 4666.7,522.0" fill="none" stroke="#5D4037" stroke-width="2.2" stroke-linecap="round" opacity="0.55"/>
<path d="M4558.7,412.0 C4558.7,472.5 4822.3,461.5 4822.3,522.0" fill="none" stroke="#5D4037" stroke-width="2.2" stroke-linecap="round" opacity="0.55"/>
<path d="M2884.7,222.0 C2884.7,282.5 5153.0,271.5 5153.0,332.0" fill="none" stroke="#6D4C41" stroke-width="2.8" stroke-linecap="round" opacity="0.55"/>
<path d="M5153.0,412.0 C5153.0,472.5 4989.6,461.5 4989.6,522.0" fill="none" stroke="#5D4037" stroke-width="2.2" stroke-linecap="round" opacity="0.55"/>
<path d="M5153.0,412.0 C5153.0,472.5 5160.8,461.5 5160.8,522.0" fill="none" stroke="#5D4037" stroke-width="2.2" stroke-linecap="round" opacity="0.55"/>
<path d="M5153.0,412.0 C5153.0,472.5 5324.2,461.5 5324.2,522.0" fill="none" stroke="#5D4037" stroke-width="2.2" stroke-linecap="round" opacity="0.55"/>
<path d="M2884.7,222.0 C2884.7,282.5 5557.6,271.5 5557.6,332.0" fill="none" stroke="#6D4C41" stroke-width="2.8" stroke-linecap="round" opacity="0.55"/>
<path d="M5557.6,412.0 C5557.6,472.5 5479.8,461.5 5479.8,522.0" fill="none" stroke="#5D4037" stroke-width="2.2" stroke-linecap="round" opacity="0.55"/>
<path d="M5557.6,412.0 C5557.6,472.5 5631.5,461.5 5631.5,522.0" fill="none" stroke="#5D4037" stroke-width="2.2" stroke-linecap="round" opacity="0.55"/>
<rect x="2782.8" y="130.0" width="203.6" height="92.0" rx="18" fill="url(#grad0)" stroke="#4E342E" stroke-width="1.5" filter="url(#rootGlow)"/>
<rect x="2784.8" y="131.5" width="199.6" height="46.0" rx="16" fill="white" opacity="0.08"/>
<text x="2884.7" y="167.5" text-anchor="middle" dy="0.35em" font-family="Lato, 'Segoe UI', Arial, sans-serif" font-size="12" font-weight="700" fill="#FFF8E1">Mohammed Jameel Marikkar</text>
<text x="2884.7" y="184.5" text-anchor="middle" dy="0.35em" font-family="Lato, 'Segoe UI', Arial, sans-serif" font-size="12" font-weight="700" fill="#FFF8E1">Haleema Nachiya</text>
<rect x="646.0" y="332.0" width="139.2" height="80.0" rx="15" fill="url(#grad1)" stroke="#1B5E20" stroke-width="1.5" filter="url(#shadow)"/>
<rect x="648.0" y="333.5" width="135.2" height="40.0" rx="13" fill="white" opacity="0.08"/>
<text x="715.7" y="363.5" text-anchor="middle" dy="0.35em" font-family="Lato, 'Segoe UI', Arial, sans-serif" font-size="12" font-weight="700" fill="#FFFFFF">Ahmed Fuward</text>
<text x="715.7" y="380.5" text-anchor="middle" dy="0.35em" font-family="Lato, 'Segoe UI', Arial, sans-serif" font-size="12" font-weight="700" fill="#FFFFFF">Fathima Nazliya</text>
<rect x="281.1" y="522.0" width="117.8" height="80.0" rx="15" fill="url(#grad2)" stroke="#4CAF50" stroke-width="1.5" filter="url(#shadow)"/>
<rect x="283.1" y="523.5" width="113.8" height="40.0" rx="13" fill="white" opacity="0.08"/>
<text x="340.0" y="553.5" text-anchor="middle" dy="0.35em" font-family="Lato, 'Segoe UI', Arial, sans-serif" font-size="12" font-weight="700" fill="#1B5E20">Nafla Fuward</text>
<text x="340.0" y="570.5" text-anchor="middle" dy="0.35em" font-family="Lato, 'Segoe UI', Arial, sans-serif" font-size="12" font-weight="700" fill="#1B5E20">Milhan Bahar</text>
<rect x="75.0" y="712.0" width="110.0" height="50.0" rx="15" fill="url(#grad3)" stroke="#F9A825" stroke-width="1.5" filter="url(#shadow)"/>
<rect x="77.0" y="713.5" width="106.0" height="25.0" rx="13" fill="white" opacity="0.08"/>
<text x="130.0" y="737.0" text-anchor="middle" dy="0.35em" font-family="Lato, 'Segoe UI', Arial, sans-serif" font-size="13" font-weight="700" fill="#5D4037">Hajara</text>
<rect x="215.0" y="712.0" width="110.0" height="50.0" rx="15" fill="url(#grad3)" stroke="#F9A825" stroke-width="1.5" filter="url(#shadow)"/>
<rect x="217.0" y="713.5" width="106.0" height="25.0" rx="13" fill="white" opacity="0.08"/>
<text x="270.0" y="737.0" text-anchor="middle" dy="0.35em" font-family="Lato, 'Segoe UI', Arial, sans-serif" font-size="13" font-weight="700" fill="#5D4037">Hafsa</text>
<rect x="355.0" y="712.0" width="110.0" height="50.0" rx="15" fill="url(#grad3)" stroke="#F9A825" stroke-width="1.5" filter="url(#shadow)"/>
<rect x="357.0" y="713.5" width="106.0" height="25.0" rx="13" fill="white" opacity="0.08"/>
<text x="410.0" y="737.0" text-anchor="middle" dy="0.35em" font-family="Lato, 'Segoe UI', Arial, sans-serif" font-size="13" font-weight="700" fill="#5D4037">Hashma</text>
<rect x="495.0" y="712.0" width="110.0" height="50.0" rx="15" fill="url(#grad3)" stroke="#F9A825" stroke-width="1.5" filter="url(#shadow)"/>
<rect x="497.0" y="713.5" width="106.0" height="25.0" rx="13" fill="white" opacity="0.08"/>
<text x="550.0" y="737.0" text-anchor="middle" dy="0.35em" font-family="Lato, 'Segoe UI', Arial, sans-serif" font-size="13" font-weight="700" fill="#5D4037">Hairah</text>
<rect x="767.5" y="522.0" width="125.0" height="80.0" rx="15" fill="url(#grad2)" stroke="#4CAF50" stroke-width="1.5" filter="url(#shadow)"/>
<rect x="769.5" y="523.5" width="121.0" height="40.0" rx="13" fill="white" opacity="0.08"/>
<text x="830.0" y="553.5" text-anchor="middle" dy="0.35em" font-family="Lato, 'Segoe UI', Arial, sans-serif" font-size="12" font-weight="700" fill="#1B5E20">Shafna Fuward</text>
<text x="830.0" y="570.5" text-anchor="middle" dy="0.35em" font-family="Lato, 'Segoe UI', Arial, sans-serif" font-size="12" font-weight="700" fill="#1B5E20">Azam Hamdoon</text>
<rect x="635.0" y="712.0" width="110.0" height="50.0" rx="15" fill="url(#grad3)" stroke="#F9A825" stroke-width="1.5" filter="url(#shadow)"/>
<rect x="637.0" y="713.5" width="106.0" height="25.0" rx="13" fill="white" opacity="0.08"/>
<text x="690.0" y="737.0" text-anchor="middle" dy="0.35em" font-family="Lato, 'Segoe UI', Arial, sans-serif" font-size="13" font-weight="700" fill="#5D4037">Hana</text>
<rect x="775.0" y="712.0" width="110.0" height="50.0" rx="15" fill="url(#grad3)" stroke="#F9A825" stroke-width="1.5" filter="url(#shadow)"/>
<rect x="777.0" y="713.5" width="106.0" height="25.0" rx="13" fill="white" opacity="0.08"/>
<text x="830.0" y="737.0" text-anchor="middle" dy="0.35em" font-family="Lato, 'Segoe UI', Arial, sans-serif" font-size="13" font-weight="700" fill="#5D4037">Haroon</text>
<rect x="915.0" y="712.0" width="110.0" height="50.0" rx="15" fill="url(#grad3)" stroke="#F9A825" stroke-width="1.5" filter="url(#shadow)"/>
<rect x="917.0" y="713.5" width="106.0" height="25.0" rx="13" fill="white" opacity="0.08"/>
<text x="970.0" y="737.0" text-anchor="middle" dy="0.35em" font-family="Lato, 'Segoe UI', Arial, sans-serif" font-size="13" font-weight="700" fill="#5D4037">Hayah</text>
<rect x="1055.0" y="522.0" width="132.1" height="80.0" rx="15" fill="url(#grad2)" stroke="#4CAF50" stroke-width="1.5" filter="url(#shadow)"/>
<rect x="1057.0" y="523.5" width="128.1" height="40.0" rx="13" fill="white" opacity="0.08"/>
<text x="1121.0" y="553.5" text-anchor="middle" dy="0.35em" font-family="Lato, 'Segoe UI', Arial, sans-serif" font-size="12" font-weight="700" fill="#1B5E20">Nabeel Fuward</text>
<text x="1121.0" y="570.5" text-anchor="middle" dy="0.35em" font-family="Lato, 'Segoe UI', Arial, sans-serif" font-size="12" font-weight="700" fill="#1B5E20">Fathima Reshma</text>
<rect x="1055.0" y="712.0" width="110.0" height="50.0" rx="15" fill="url(#grad3)" stroke="#F9A825" stroke-width="1.5" filter="url(#shadow)"/>
<rect x="1057.0" y="713.5" width="106.0" height="25.0" rx="13" fill="white" opacity="0.08"/>
<text x="1110.0" y="737.0" text-anchor="middle" dy="0.35em" font-family="Lato, 'Segoe UI', Arial, sans-serif" font-size="13" font-weight="700" fill="#5D4037">Khalid</text>
<rect x="1217.1" y="522.0" width="139.2" height="80.0" rx="15" fill="url(#grad2)" stroke="#4CAF50" stroke-width="1.5" filter="url(#shadow)"/>
<rect x="1219.1" y="523.5" width="135.2" height="40.0" rx="13" fill="white" opacity="0.08"/>
<text x="1286.7" y="553.5" text-anchor="middle" dy="0.35em" font-family="Lato, 'Segoe UI', Arial, sans-serif" font-size="12" font-weight="700" fill="#1B5E20">Nazeel Fuward</text>
<text x="1286.7" y="570.5" text-anchor="middle" dy="0.35em" font-family="Lato, 'Segoe UI', Arial, sans-serif" font-size="12" font-weight="700" fill="#1B5E20">Fathima Sabeeha</text>
<rect x="1869.2" y="332.0" width="139.2" height="80.0" rx="15" fill="url(#grad1)" stroke="#1B5E20" stroke-width="1.5" filter="url(#shadow)"/>
<rect x="1871.2" y="333.5" width="135.2" height="40.0" rx="13" fill="white" opacity="0.08"/>
<text x="1938.8" y="363.5" text-anchor="middle" dy="0.35em" font-family="Lato, 'Segoe UI', Arial, sans-serif" font-size="12" font-weight="700" fill="#FFFFFF">Marhoma Fuwarda</text>
<text x="1938.8" y="380.5" text-anchor="middle" dy="0.35em" font-family="Lato, 'Segoe UI', Arial, sans-serif" font-size="12" font-weight="700" fill="#FFFFFF">Yoosuf Ismail</text>
<rect x="1448.9" y="522.0" width="125.0" height="80.0" rx="15" fill="url(#grad2)" stroke="#4CAF50" stroke-width="1.5" filter="url(#shadow)"/>
<rect x="1450.9" y="523.5" width="121.0" height="40.0" rx="13" fill="white" opacity="0.08"/>
<text x="1511.3" y="553.5" text-anchor="middle" dy="0.35em" font-family="Lato, 'Segoe UI', Arial, sans-serif" font-size="12" font-weight="700" fill="#1B5E20">Minsha Ismail</text>
<text x="1511.3" y="570.5" text-anchor="middle" dy="0.35em" font-family="Lato, 'Segoe UI', Arial, sans-serif" font-size="12" font-weight="700" fill="#1B5E20">Fathima Zinha</text>
<rect x="1386.3" y="712.0" width="110.0" height="50.0" rx="15" fill="url(#grad3)" stroke="#F9A825" stroke-width="1.5" filter="url(#shadow)"/>
<rect x="1388.3" y="713.5" width="106.0" height="25.0" rx="13" fill="white" opacity="0.08"/>
<text x="1441.3" y="737.0" text-anchor="middle" dy="0.35em" font-family="Lato, 'Segoe UI', Arial, sans-serif" font-size="13" font-weight="700" fill="#5D4037">Sumaiyya</text>
<rect x="1526.3" y="712.0" width="110.0" height="50.0" rx="15" fill="url(#grad3)" stroke="#F9A825" stroke-width="1.5" filter="url(#shadow)"/>
<rect x="1528.3" y="713.5" width="106.0" height="25.0" rx="13" fill="white" opacity="0.08"/>
<text x="1581.3" y="737.0" text-anchor="middle" dy="0.35em" font-family="Lato, 'Segoe UI', Arial, sans-serif" font-size="13" font-weight="700" fill="#5D4037">Hayah</text>
<rect x="1725.3" y="522.0" width="132.1" height="80.0" rx="15" fill="url(#grad2)" stroke="#4CAF50" stroke-width="1.5" filter="url(#shadow)"/>
<rect x="1727.3" y="523.5" width="128.1" height="40.0" rx="13" fill="white" opacity="0.08"/>
<text x="1791.3" y="553.5" text-anchor="middle" dy="0.35em" font-family="Lato, 'Segoe UI', Arial, sans-serif" font-size="12" font-weight="700" fill="#1B5E20">Shafras Ismail</text>
<text x="1791.3" y="570.5" text-anchor="middle" dy="0.35em" font-family="Lato, 'Segoe UI', Arial, sans-serif" font-size="12" font-weight="700" fill="#1B5E20">Fathima Ziqra</text>
<rect x="1666.3" y="712.0" width="110.0" height="50.0" rx="15" fill="url(#grad3)" stroke="#F9A825" stroke-width="1.5" filter="url(#shadow)"/>
<rect x="1668.3" y="713.5" width="106.0" height="25.0" rx="13" fill="white" opacity="0.08"/>
<text x="1721.3" y="737.0" text-anchor="middle" dy="0.35em" font-family="Lato, 'Segoe UI', Arial, sans-serif" font-size="13" font-weight="700" fill="#5D4037">Zaid</text>
<rect x="1806.3" y="712.0" width="110.0" height="50.0" rx="15" fill="url(#grad3)" stroke="#F9A825" stroke-width="1.5" filter="url(#shadow)"/>
<rect x="1808.3" y="713.5" width="106.0" height="25.0" rx="13" fill="white" opacity="0.08"/>
<text x="1861.3" y="737.0" text-anchor="middle" dy="0.35em" font-family="Lato, 'Segoe UI', Arial, sans-serif" font-size="13" font-weight="700" fill="#5D4037">Noorah</text>
<rect x="2075.3" y="522.0" width="132.1" height="80.0" rx="15" fill="url(#grad2)" stroke="#4CAF50" stroke-width="1.5" filter="url(#shadow)"/>
<rect x="2077.3" y="523.5" width="128.1" height="40.0" rx="13" fill="white" opacity="0.08"/>
<text x="2141.4" y="553.5" text-anchor="middle" dy="0.35em" font-family="Lato, 'Segoe UI', Arial, sans-serif" font-size="12" font-weight="700" fill="#1B5E20">Zimra Ismail</text>
<text x="2141.4" y="570.5" text-anchor="middle" dy="0.35em" font-family="Lato, 'Segoe UI', Arial, sans-serif" font-size="12" font-weight="700" fill="#1B5E20">Akhlas Ashraff</text>
<rect x="1946.3" y="712.0" width="110.0" height="50.0" rx="15" fill="url(#grad3)" stroke="#F9A825" stroke-width="1.5" filter="url(#shadow)"/>
<rect x="1948.3" y="713.5" width="106.0" height="25.0" rx="13" fill="white" opacity="0.08"/>
<text x="2001.3" y="737.0" text-anchor="middle" dy="0.35em" font-family="Lato, 'Segoe UI', Arial, sans-serif" font-size="13" font-weight="700" fill="#5D4037">Ammar</text>
<rect x="2086.3" y="712.0" width="110.0" height="50.0" rx="15" fill="url(#grad3)" stroke="#F9A825" stroke-width="1.5" filter="url(#shadow)"/>
<rect x="2088.3" y="713.5" width="106.0" height="25.0" rx="13" fill="white" opacity="0.08"/>
<text x="2141.3" y="737.0" text-anchor="middle" dy="0.35em" font-family="Lato, 'Segoe UI', Arial, sans-serif" font-size="13" font-weight="700" fill="#5D4037">Muhammadh</text>
<rect x="2226.3" y="712.0" width="110.0" height="50.0" rx="15" fill="url(#grad3)" stroke="#F9A825" stroke-width="1.5" filter="url(#shadow)"/>
<rect x="2228.3" y="713.5" width="106.0" height="25.0" rx="13" fill="white" opacity="0.08"/>
<text x="2281.3" y="737.0" text-anchor="middle" dy="0.35em" font-family="Lato, 'Segoe UI', Arial, sans-serif" font-size="13" font-weight="700" fill="#5D4037">Khadijah</text>
<rect x="2366.3" y="522.0" width="125.0" height="80.0" rx="15" fill="url(#grad2)" stroke="#4CAF50" stroke-width="1.5" filter="url(#shadow)"/>
<rect x="2368.3" y="523.5" width="121.0" height="40.0" rx="13" fill="white" opacity="0.08"/>
<text x="2428.8" y="553.5" text-anchor="middle" dy="0.35em" font-family="Lato, 'Segoe UI', Arial, sans-serif" font-size="12" font-weight="700" fill="#1B5E20">Mubeen Ismail</text>
<text x="2428.8" y="570.5" text-anchor="middle" dy="0.35em" font-family="Lato, 'Segoe UI', Arial, sans-serif" font-size="12" font-weight="700" fill="#1B5E20">Fathima Nuzla</text>
<rect x="2366.3" y="712.0" width="110.0" height="50.0" rx="15" fill="url(#grad3)" stroke="#F9A825" stroke-width="1.5" filter="url(#shadow)"/>
<rect x="2368.3" y="713.5" width="106.0" height="25.0" rx="13" fill="white" opacity="0.08"/>
<text x="2421.3" y="737.0" text-anchor="middle" dy="0.35em" font-family="Lato, 'Segoe UI', Arial, sans-serif" font-size="13" font-weight="700" fill="#5D4037">Adam</text>
<rect x="2583.8" y="332.0" width="125.0" height="80.0" rx="15" fill="url(#grad1)" stroke="#1B5E20" stroke-width="1.5" filter="url(#shadow)"/>
<rect x="2585.8" y="333.5" width="121.0" height="40.0" rx="13" fill="white" opacity="0.08"/>
<text x="2646.3" y="363.5" text-anchor="middle" dy="0.35em" font-family="Lato, 'Segoe UI', Arial, sans-serif" font-size="12" font-weight="700" fill="#FFFFFF">Fazliya Hanim</text>
<text x="2646.3" y="380.5" text-anchor="middle" dy="0.35em" font-family="Lato, 'Segoe UI', Arial, sans-serif" font-size="12" font-weight="700" fill="#FFFFFF">Iqbal Azeez</text>
<rect x="2583.8" y="522.0" width="125.0" height="80.0" rx="15" fill="url(#grad2)" stroke="#4CAF50" stroke-width="1.5" filter="url(#shadow)"/>
<rect x="2585.8" y="523.5" width="121.0" height="40.0" rx="13" fill="white" opacity="0.08"/>
<text x="2646.3" y="553.5" text-anchor="middle" dy="0.35em" font-family="Lato, 'Segoe UI', Arial, sans-serif" font-size="12" font-weight="700" fill="#1B5E20">Rizan Iqbal</text>
<text x="2646.3" y="570.5" text-anchor="middle" dy="0.35em" font-family="Lato, 'Segoe UI', Arial, sans-serif" font-size="12" font-weight="700" fill="#1B5E20">Fathima Jezla</text>
<rect x="2521.3" y="712.0" width="110.0" height="50.0" rx="15" fill="url(#grad3)" stroke="#F9A825" stroke-width="1.5" filter="url(#shadow)"/>
<rect x="2523.3" y="713.5" width="106.0" height="25.0" rx="13" fill="white" opacity="0.08"/>
<text x="2576.3" y="737.0" text-anchor="middle" dy="0.35em" font-family="Lato, 'Segoe UI', Arial, sans-serif" font-size="13" font-weight="700" fill="#5D4037">Noorah</text>
<rect x="2661.3" y="712.0" width="110.0" height="50.0" rx="15" fill="url(#grad3)" stroke="#F9A825" stroke-width="1.5" filter="url(#shadow)"/>
<rect x="2663.3" y="713.5" width="106.0" height="25.0" rx="13" fill="white" opacity="0.08"/>
<text x="2716.3" y="737.0" text-anchor="middle" dy="0.35em" font-family="Lato, 'Segoe UI', Arial, sans-serif" font-size="13" font-weight="700" fill="#5D4037">Ayrah</text>
<rect x="2872.0" y="332.0" width="139.2" height="80.0" rx="15" fill="url(#grad1)" stroke="#1B5E20" stroke-width="1.5" filter="url(#shadow)"/>
<rect x="2874.0" y="333.5" width="135.2" height="40.0" rx="13" fill="white" opacity="0.08"/>
<text x="2941.6" y="363.5" text-anchor="middle" dy="0.35em" font-family="Lato, 'Segoe UI', Arial, sans-serif" font-size="12" font-weight="700" fill="#FFFFFF">Fathima Fazeela</text>
<text x="2941.6" y="380.5" text-anchor="middle" dy="0.35em" font-family="Lato, 'Segoe UI', Arial, sans-serif" font-size="12" font-weight="700" fill="#FFFFFF">Ahsan Shareef</text>
<rect x="2801.3" y="522.0" width="125.0" height="80.0" rx="15" fill="url(#grad2)" stroke="#4CAF50" stroke-width="1.5" filter="url(#shadow)"/>
<rect x="2803.3" y="523.5" width="121.0" height="40.0" rx="13" fill="white" opacity="0.08"/>
<text x="2863.8" y="553.5" text-anchor="middle" dy="0.35em" font-family="Lato, 'Segoe UI', Arial, sans-serif" font-size="12" font-weight="700" fill="#1B5E20">Lafrina Ahsan</text>
<text x="2863.8" y="570.5" text-anchor="middle" dy="0.35em" font-family="Lato, 'Segoe UI', Arial, sans-serif" font-size="12" font-weight="700" fill="#1B5E20">Ishak Ansar</text>
<rect x="2801.3" y="712.0" width="110.0" height="50.0" rx="15" fill="url(#grad3)" stroke="#F9A825" stroke-width="1.5" filter="url(#shadow)"/>
<rect x="2803.3" y="713.5" width="106.0" height="25.0" rx="13" fill="white" opacity="0.08"/>
<text x="2856.3" y="737.0" text-anchor="middle" dy="0.35em" font-family="Lato, 'Segoe UI', Arial, sans-serif" font-size="13" font-weight="700" fill="#5D4037">Eesa</text>
<rect x="2956.2" y="522.0" width="125.6" height="50.0" rx="15" fill="url(#grad2)" stroke="#4CAF50" stroke-width="1.5" filter="url(#shadow)"/>
<rect x="2958.2" y="523.5" width="121.6" height="25.0" rx="13" fill="white" opacity="0.08"/>
<text x="3019.1" y="547.0" text-anchor="middle" dy="0.35em" font-family="Lato, 'Segoe UI', Arial, sans-serif" font-size="13" font-weight="700" fill="#1B5E20">Luqman Ahsan</text>
<rect x="3268.8" y="332.0" width="139.2" height="80.0" rx="15" fill="url(#grad1)" stroke="#1B5E20" stroke-width="1.5" filter="url(#shadow)"/>
<rect x="3270.8" y="333.5" width="135.2" height="40.0" rx="13" fill="white" opacity="0.08"/>
<text x="3338.4" y="363.5" text-anchor="middle" dy="0.35em" font-family="Lato, 'Segoe UI', Arial, sans-serif" font-size="12" font-weight="700" fill="#FFFFFF">Ahmad Fahim</text>
<text x="3338.4" y="380.5" text-anchor="middle" dy="0.35em" font-family="Lato, 'Segoe UI', Arial, sans-serif" font-size="12" font-weight="700" fill="#FFFFFF">Fathima Rizmiya</text>
<rect x="3111.9" y="522.0" width="110.7" height="80.0" rx="15" fill="url(#grad2)" stroke="#4CAF50" stroke-width="1.5" filter="url(#shadow)"/>
<rect x="3113.9" y="523.5" width="106.7" height="40.0" rx="13" fill="white" opacity="0.08"/>
<text x="3167.2" y="553.5" text-anchor="middle" dy="0.35em" font-family="Lato, 'Segoe UI', Arial, sans-serif" font-size="12" font-weight="700" fill="#1B5E20">Rifla Fahim</text>
<text x="3167.2" y="570.5" text-anchor="middle" dy="0.35em" font-family="Lato, 'Segoe UI', Arial, sans-serif" font-size="12" font-weight="700" fill="#1B5E20">Akil Faseeh</text>
<rect x="3252.5" y="522.0" width="117.8" height="50.0" rx="15" fill="url(#grad2)" stroke="#4CAF50" stroke-width="1.5" filter="url(#shadow)"/>
<rect x="3254.5" y="523.5" width="113.8" height="25.0" rx="13" fill="white" opacity="0.08"/>
<text x="3311.4" y="547.0" text-anchor="middle" dy="0.35em" font-family="Lato, 'Segoe UI', Arial, sans-serif" font-size="13" font-weight="700" fill="#1B5E20">Fahma Fahim</text>
<rect x="3400.3" y="522.0" width="164.6" height="50.0" rx="15" fill="url(#grad2)" stroke="#4CAF50" stroke-width="1.5" filter="url(#shadow)"/>
<rect x="3402.3" y="523.5" width="160.6" height="25.0" rx="13" fill="white" opacity="0.08"/>
<text x="3482.6" y="547.0" text-anchor="middle" dy="0.35em" font-family="Lato, 'Segoe UI', Arial, sans-serif" font-size="13" font-weight="700" fill="#1B5E20">Abdulbasith Fahim</text>
<rect x="3836.1" y="332.0" width="125.0" height="80.0" rx="15" fill="url(#grad1)" stroke="#1B5E20" stroke-width="1.5" filter="url(#shadow)"/>
<rect x="3838.1" y="333.5" width="121.0" height="40.0" rx="13" fill="white" opacity="0.08"/>
<text x="3898.6" y="363.5" text-anchor="middle" dy="0.35em" font-family="Lato, 'Segoe UI', Arial, sans-serif" font-size="12" font-weight="700" fill="#FFFFFF">Ahmad Fazloon</text>
<text x="3898.6" y="380.5" text-anchor="middle" dy="0.35em" font-family="Lato, 'Segoe UI', Arial, sans-serif" font-size="12" font-weight="700" fill="#FFFFFF">Fathima Ifama</text>
<rect x="3594.9" y="522.0" width="125.0" height="80.0" rx="15" fill="url(#grad2)" stroke="#4CAF50" stroke-width="1.5" filter="url(#shadow)"/>
<rect x="3596.9" y="523.5" width="121.0" height="40.0" rx="13" fill="white" opacity="0.08"/>
<text x="3657.4" y="553.5" text-anchor="middle" dy="0.35em" font-family="Lato, 'Segoe UI', Arial, sans-serif" font-size="12" font-weight="700" fill="#1B5E20">Farha Fazloon</text>
<text x="3657.4" y="570.5" text-anchor="middle" dy="0.35em" font-family="Lato, 'Segoe UI', Arial, sans-serif" font-size="12" font-weight="700" fill="#1B5E20">Mufeez Azam</text>
<rect x="3749.9" y="522.0" width="133.4" height="50.0" rx="15" fill="url(#grad2)" stroke="#4CAF50" stroke-width="1.5" filter="url(#shadow)"/>
<rect x="3751.9" y="523.5" width="129.4" height="25.0" rx="13" fill="white" opacity="0.08"/>
<text x="3816.6" y="547.0" text-anchor="middle" dy="0.35em" font-family="Lato, 'Segoe UI', Arial, sans-serif" font-size="13" font-weight="700" fill="#1B5E20">Insaf Fazloon</text>
<rect x="3913.3" y="522.0" width="133.4" height="50.0" rx="15" fill="url(#grad2)" stroke="#4CAF50" stroke-width="1.5" filter="url(#shadow)"/>
<rect x="3915.3" y="523.5" width="129.4" height="25.0" rx="13" fill="white" opacity="0.08"/>
<text x="3980.0" y="547.0" text-anchor="middle" dy="0.35em" font-family="Lato, 'Segoe UI', Arial, sans-serif" font-size="13" font-weight="700" fill="#1B5E20">Inaam Fazloon</text>
<rect x="4076.7" y="522.0" width="125.6" height="50.0" rx="15" fill="url(#grad2)" stroke="#4CAF50" stroke-width="1.5" filter="url(#shadow)"/>
<rect x="4078.7" y="523.5" width="121.6" height="25.0" rx="13" fill="white" opacity="0.08"/>
<text x="4139.5" y="547.0" text-anchor="middle" dy="0.35em" font-family="Lato, 'Segoe UI', Arial, sans-serif" font-size="13" font-weight="700" fill="#1B5E20">Imam Fazloon</text>
<rect x="4492.6" y="332.0" width="132.1" height="80.0" rx="15" fill="url(#grad1)" stroke="#1B5E20" stroke-width="1.5" filter="url(#shadow)"/>
<rect x="4494.6" y="333.5" width="128.1" height="40.0" rx="13" fill="white" opacity="0.08"/>
<text x="4558.7" y="363.5" text-anchor="middle" dy="0.35em" font-family="Lato, 'Segoe UI', Arial, sans-serif" font-size="12" font-weight="700" fill="#FFFFFF">Farshiya Hanim</text>
<text x="4558.7" y="380.5" text-anchor="middle" dy="0.35em" font-family="Lato, 'Segoe UI', Arial, sans-serif" font-size="12" font-weight="700" fill="#FFFFFF">Rifdhi Jameel</text>
<rect x="4232.3" y="522.0" width="172.4" height="50.0" rx="15" fill="url(#grad2)" stroke="#4CAF50" stroke-width="1.5" filter="url(#shadow)"/>
<rect x="4234.3" y="523.5" width="168.4" height="25.0" rx="13" fill="white" opacity="0.08"/>
<text x="4318.5" y="547.0" text-anchor="middle" dy="0.35em" font-family="Lato, 'Segoe UI', Arial, sans-serif" font-size="13" font-weight="700" fill="#1B5E20">Abdulrahman Rifdhi</text>
<rect x="4434.7" y="522.0" width="139.2" height="80.0" rx="15" fill="url(#grad2)" stroke="#4CAF50" stroke-width="1.5" filter="url(#shadow)"/>
<rect x="4436.7" y="523.5" width="135.2" height="40.0" rx="13" fill="white" opacity="0.08"/>
<text x="4504.3" y="553.5" text-anchor="middle" dy="0.35em" font-family="Lato, 'Segoe UI', Arial, sans-serif" font-size="12" font-weight="700" fill="#1B5E20">Ayyoob Rifdhi</text>
<text x="4504.3" y="570.5" text-anchor="middle" dy="0.35em" font-family="Lato, 'Segoe UI', Arial, sans-serif" font-size="12" font-weight="700" fill="#1B5E20">Fathima Shakira</text>
<rect x="4603.9" y="522.0" width="125.6" height="50.0" rx="15" fill="url(#grad2)" stroke="#4CAF50" stroke-width="1.5" filter="url(#shadow)"/>
<rect x="4605.9" y="523.5" width="121.6" height="25.0" rx="13" fill="white" opacity="0.08"/>
<text x="4666.7" y="547.0" text-anchor="middle" dy="0.35em" font-family="Lato, 'Segoe UI', Arial, sans-serif" font-size="13" font-weight="700" fill="#1B5E20">Usman Rifdhi</text>
<rect x="4759.5" y="522.0" width="125.6" height="50.0" rx="15" fill="url(#grad2)" stroke="#4CAF50" stroke-width="1.5" filter="url(#shadow)"/>
<rect x="4761.5" y="523.5" width="121.6" height="25.0" rx="13" fill="white" opacity="0.08"/>
<text x="4822.3" y="547.0" text-anchor="middle" dy="0.35em" font-family="Lato, 'Segoe UI', Arial, sans-serif" font-size="13" font-weight="700" fill="#1B5E20">Ahmed Rifdhi</text>
<rect x="5083.4" y="332.0" width="139.2" height="80.0" rx="15" fill="url(#grad1)" stroke="#1B5E20" stroke-width="1.5" filter="url(#shadow)"/>
<rect x="5085.4" y="333.5" width="135.2" height="40.0" rx="13" fill="white" opacity="0.08"/>
<text x="5153.0" y="363.5" text-anchor="middle" dy="0.35em" font-family="Lato, 'Segoe UI', Arial, sans-serif" font-size="12" font-weight="700" fill="#FFFFFF">Fathima Farhana</text>
<text x="5153.0" y="380.5" text-anchor="middle" dy="0.35em" font-family="Lato, 'Segoe UI', Arial, sans-serif" font-size="12" font-weight="700" fill="#FFFFFF">Zawahir Thaha</text>
<rect x="4915.1" y="522.0" width="149.0" height="50.0" rx="15" fill="url(#grad2)" stroke="#4CAF50" stroke-width="1.5" filter="url(#shadow)"/>
<rect x="4917.1" y="523.5" width="145.0" height="25.0" rx="13" fill="white" opacity="0.08"/>
<text x="4989.6" y="547.0" text-anchor="middle" dy="0.35em" font-family="Lato, 'Segoe UI', Arial, sans-serif" font-size="13" font-weight="700" fill="#1B5E20">Thabiya Zawahir</text>
<rect x="5094.1" y="522.0" width="133.4" height="50.0" rx="15" fill="url(#grad2)" stroke="#4CAF50" stroke-width="1.5" filter="url(#shadow)"/>
<rect x="5096.1" y="523.5" width="129.4" height="25.0" rx="13" fill="white" opacity="0.08"/>
<text x="5160.8" y="547.0" text-anchor="middle" dy="0.35em" font-family="Lato, 'Segoe UI', Arial, sans-serif" font-size="13" font-weight="700" fill="#1B5E20">Nuzha Zawahir</text>
<rect x="5257.5" y="522.0" width="133.4" height="50.0" rx="15" fill="url(#grad2)" stroke="#4CAF50" stroke-width="1.5" filter="url(#shadow)"/>
<rect x="5259.5" y="523.5" width="129.4" height="25.0" rx="13" fill="white" opacity="0.08"/>
<text x="5324.2" y="547.0" text-anchor="middle" dy="0.35em" font-family="Lato, 'Segoe UI', Arial, sans-serif" font-size="13" font-weight="700" fill="#1B5E20">Zahra Zawahir</text>
<rect x="5491.6" y="332.0" width="132.1" height="80.0" rx="15" fill="url(#grad1)" stroke="#1B5E20" stroke-width="1.5" filter="url(#shadow)"/>
<rect x="5493.6" y="333.5" width="128.1" height="40.0" rx="13" fill="white" opacity="0.08"/>
<text x="5557.6" y="363.5" text-anchor="middle" dy="0.35em" font-family="Lato, 'Segoe UI', Arial, sans-serif" font-size="12" font-weight="700" fill="#FFFFFF">Ahmad Quhaf</text>
<text x="5557.6" y="380.5" text-anchor="middle" dy="0.35em" font-family="Lato, 'Segoe UI', Arial, sans-serif" font-size="12" font-weight="700" fill="#FFFFFF">Fathima Ashika</text>
<rect x="5420.9" y="522.0" width="117.8" height="50.0" rx="15" fill="url(#grad2)" stroke="#4CAF50" stroke-width="1.5" filter="url(#shadow)"/>
<rect x="5422.9" y="523.5" width="113.8" height="25.0" rx="13" fill="white" opacity="0.08"/>
<text x="5479.8" y="547.0" text-anchor="middle" dy="0.35em" font-family="Lato, 'Segoe UI', Arial, sans-serif" font-size="13" font-weight="700" fill="#1B5E20">Ajmal Quhaf</text>
<rect x="5568.7" y="522.0" width="125.6" height="50.0" rx="15" fill="url(#grad2)" stroke="#4CAF50" stroke-width="1.5" filter="url(#shadow)"/>
<rect x="5570.7" y="523.5" width="121.6" height="25.0" rx="13" fill="white" opacity="0.08"/>
<text x="5631.5" y="547.0" text-anchor="middle" dy="0.35em" font-family="Lato, 'Segoe UI', Arial, sans-serif" font-size="13" font-weight="700" fill="#1B5E20">Reshma Quhaf</text>
<path d="M2885,121 L2889,126 L2885,131 L2881,126 Z" fill="#C9A96E" opacity="0.8"/>
<path d="M30,842 Q1451,834 2902,839 Q4353,847 5774,842" fill="none" stroke="#BCAAA4" stroke-width="1" opacity="0.4"/>
</svg>